<mxfile host="app.diagrams.net" modified="2024-06-03T19:44:06.651Z" agent="Mozilla/5.0 (Macintosh; Intel Mac OS X 10_15_7) AppleWebKit/605.1.15 (KHTML, like Gecko) Version/17.4.1 Safari/605.1.15" version="24.4.4" etag="liF_3M7g2-fFmPlBcv8O" type="github">
  <diagram name="Page-1" id="3letRemHfl1AupCwnePv">
    <mxGraphModel>
      <root>
        <mxCell id="0" />
        <mxCell id="1" parent="0" />
      </root>
    </mxGraphModel>
  </diagram>
</mxfile>
